<?xml version="1.0" encoding="UTF-8"?>
<svg id="Layer_2" xmlns="http://www.w3.org/2000/svg" viewBox="0 0 1920.47 480">
  <defs>
    <style>
      .cls-1 {
        fill: none;
      }

      .cls-2 {
        fill: #fff;
        stroke: #3e3e3e;
        stroke-miterlimit: 10;
      }
    </style>
  </defs>
  <g id="Layer_1-2" data-name="Layer_1">
    <g>
      <rect class="cls-1" x=".47" width="1920" height="480"/>
      <path class="cls-2" d="M495.24,245.28c-2.28,0-4.47.35-6.53,1.01-2.1-12.83-13.23-22.62-26.65-22.62-4.09,0-7.96.91-11.44,2.54-6-8.53-15.92-14.11-27.15-14.11-15.17,0-27.95,10.18-31.91,24.08-.93-.1-1.87-.15-2.82-.15-14.49,0-26.24,11.75-26.24,26.24s11.75,26.24,26.24,26.24h106.5c11.93,0,21.61-9.67,21.61-21.61s-9.67-21.61-21.61-21.61Z"/>
      <path class="cls-2" d="M951.96,400.28c-2.28,0-4.47.35-6.53,1.01-2.1-12.83-13.23-22.62-26.65-22.62-4.09,0-7.96.91-11.44,2.54-6-8.53-15.92-14.11-27.15-14.11-15.17,0-27.95,10.18-31.91,24.08-.93-.1-1.87-.15-2.82-.15-14.49,0-26.24,11.75-26.24,26.24s11.75,26.24,26.24,26.24h106.5c11.93,0,21.61-9.67,21.61-21.61s-9.67-21.61-21.61-21.61Z"/>
      <path class="cls-2" d="M287.96,400.28c-2.28,0-4.47.35-6.53,1.01-2.1-12.83-13.23-22.62-26.65-22.62-4.09,0-7.96.91-11.44,2.54-6-8.53-15.92-14.11-27.15-14.11-15.17,0-27.95,10.18-31.91,24.08-.93-.1-1.87-.15-2.82-.15-14.49,0-26.24,11.75-26.24,26.24s11.75,26.24,26.24,26.24h106.5c11.93,0,21.61-9.67,21.61-21.61s-9.67-21.61-21.61-21.61Z"/>
      <path class="cls-2" d="M768.23,98.28c-2.28,0-4.47.35-6.53,1.01-2.1-12.83-13.23-22.62-26.65-22.62-4.09,0-7.96.91-11.44,2.54-6-8.53-15.92-14.11-27.15-14.11-15.17,0-27.95,10.18-31.91,24.08-.93-.1-1.87-.15-2.82-.15-14.49,0-26.24,11.75-26.24,26.24s11.75,26.24,26.24,26.24h106.5c11.93,0,21.61-9.67,21.61-21.61s-9.67-21.61-21.61-21.61Z"/>
      <path class="cls-2" d="M133.23,98.28c-2.28,0-4.47.35-6.53,1.01-2.1-12.83-13.23-22.62-26.65-22.62-4.09,0-7.96.91-11.44,2.54-6-8.53-15.92-14.11-27.15-14.11-15.17,0-27.95,10.18-31.91,24.08-.93-.1-1.87-.15-2.82-.15-14.49,0-26.24,11.75-26.24,26.24s11.75,26.24,26.24,26.24h106.5c11.93,0,21.61-9.67,21.61-21.61s-9.67-21.61-21.61-21.61Z"/>
      <path class="cls-2" d="M1201.95,245.28c-2.28,0-4.47.35-6.53,1.01-2.1-12.83-13.23-22.62-26.65-22.62-4.09,0-7.96.91-11.44,2.54-6-8.53-15.92-14.11-27.15-14.11-15.17,0-27.95,10.18-31.91,24.08-.93-.1-1.87-.15-2.82-.15-14.49,0-26.24,11.75-26.24,26.24s11.75,26.24,26.24,26.24h106.5c11.93,0,21.61-9.67,21.61-21.61s-9.67-21.61-21.61-21.61Z"/>
      <path class="cls-2" d="M1594.08,400.28c-2.28,0-4.47.35-6.53,1.01-2.1-12.83-13.23-22.62-26.65-22.62-4.09,0-7.96.91-11.44,2.54-6-8.53-15.92-14.11-27.15-14.11-15.17,0-27.95,10.18-31.91,24.08-.93-.1-1.87-.15-2.82-.15-14.49,0-26.24,11.75-26.24,26.24s11.75,26.24,26.24,26.24h106.5c11.93,0,21.61-9.67,21.61-21.61s-9.67-21.61-21.61-21.61Z"/>
      <path class="cls-2" d="M1448.53,98.28c-2.28,0-4.47.35-6.53,1.01-2.1-12.83-13.23-22.62-26.65-22.62-4.09,0-7.96.91-11.44,2.54-6-8.53-15.92-14.11-27.15-14.11-15.17,0-27.95,10.18-31.91,24.08-.93-.1-1.87-.15-2.82-.15-14.49,0-26.24,11.75-26.24,26.24s11.75,26.24,26.24,26.24h106.5c11.93,0,21.61-9.67,21.61-21.61s-9.67-21.61-21.61-21.61Z"/>
      <path class="cls-2" d="M1838.53,245.28c-2.28,0-4.47.35-6.53,1.01-2.1-12.83-13.23-22.62-26.65-22.62-4.09,0-7.96.91-11.44,2.54-6-8.53-15.92-14.11-27.15-14.11-15.17,0-27.95,10.18-31.91,24.08-.93-.1-1.87-.15-2.82-.15-14.49,0-26.24,11.75-26.24,26.24s11.75,26.24,26.24,26.24h106.5c11.93,0,21.61-9.67,21.61-21.61s-9.67-21.61-21.61-21.61Z"/>
    </g>
  </g>
</svg>