<?xml version="1.0" encoding="UTF-8"?>
<svg id="Layer_2" xmlns="http://www.w3.org/2000/svg" viewBox="0 0 850 503.06">
  <defs>
    <style>
      .cls-1 {
        fill: #0f9361;
      }

      .cls-2 {
        fill: #3e3e3e;
      }

      .cls-3 {
        fill: #058dd7;
      }

      .cls-4 {
        fill: none;
        stroke: #3e3e3e;
        stroke-miterlimit: 10;
      }

      .cls-5 {
        fill: #fec667;
      }

      .cls-6 {
        fill: #f095c0;
      }

      .cls-7 {
        fill: #552cb7;
        fill-rule: evenodd;
      }
    </style>
  </defs>
  <g id="Layer_1-2" data-name="Layer_1">
    <g>
      <g>
        <rect class="cls-2" x="359.55" y="0" width="246.01" height="499.34"/>
        <g>
          <rect class="cls-5" x="155.05" y="424.71" width="327.01" height="40"/>
          <path class="cls-2" d="M481.56,425.21v39H155.55v-39h326.01M482.56,424.21H154.55v41h328.01v-41h0Z"/>
        </g>
        <g>
          <rect class="cls-5" x="107.29" y="390.02" width="412.62" height="40"/>
          <path class="cls-2" d="M519.41,390.52v39H107.79v-39h411.62M520.41,389.52H106.79v41h413.62v-41h0Z"/>
        </g>
        <rect class="cls-2" y="0" width="126.16" height="394.7"/>
        <line class="cls-4" x1="171.89" y1="394.25" x2="171.89" y2="430.41"/>
        <g>
          <rect class="cls-6" x="604.49" y=".5" width="245.01" height="502.06"/>
          <path class="cls-2" d="M849,1v501.06h-244.01V1h244.01M850,0h-246.01v503.06h246.01V0h0Z"/>
        </g>
        <g>
          <rect class="cls-5" x="125.08" y=".5" width="440.56" height="393.52"/>
          <path class="cls-2" d="M565.14,1v392.52H125.58V1h439.56M566.14,0H124.58v394.52h441.56V0h0Z"/>
        </g>
        <line class="cls-4" x1="636.68" y1="0" x2="636.68" y2="501.48"/>
        <line class="cls-4" x1="816.46" y1="0" x2="816.46" y2="501.48"/>
        <line class="cls-4" x1="636.68" y1="422.63" x2="816.46" y2="422.63"/>
        <line class="cls-4" x1="636.68" y1="66.23" x2="816.46" y2="66.23"/>
        <line class="cls-4" x1="637.18" y1="157.7" x2="816.96" y2="157.7"/>
        <rect class="cls-4" x="649.29" y="85.16" width="154.55" height="18.92"/>
        <g>
          <path class="cls-3" d="M660.33,135.12c-4.07,0-7.38-3.31-7.38-7.38s3.31-7.38,7.38-7.38,7.39,3.31,7.39,7.38-3.31,7.38-7.39,7.38Z"/>
          <path class="cls-2" d="M660.33,120.85c3.8,0,6.89,3.09,6.89,6.89s-3.09,6.88-6.89,6.88-6.89-3.09-6.89-6.88,3.09-6.89,6.89-6.89M660.33,119.85c-4.35,0-7.89,3.53-7.89,7.89s3.53,7.88,7.89,7.88,7.89-3.53,7.89-7.88-3.53-7.89-7.89-7.89h0Z"/>
        </g>
        <g>
          <circle class="cls-3" cx="783.34" cy="178.2" r="7.38"/>
          <path class="cls-2" d="M783.34,171.32c3.8,0,6.89,3.09,6.89,6.89s-3.09,6.88-6.89,6.88-6.89-3.09-6.89-6.88,3.09-6.89,6.89-6.89M783.34,170.32c-4.35,0-7.89,3.53-7.89,7.89s3.53,7.88,7.89,7.88,7.89-3.53,7.89-7.88-3.53-7.89-7.89-7.89h0Z"/>
        </g>
        <g>
          <circle class="cls-1" cx="783.34" cy="206.59" r="7.38"/>
          <path class="cls-2" d="M783.34,199.7c3.8,0,6.89,3.09,6.89,6.88s-3.09,6.88-6.89,6.88-6.89-3.09-6.89-6.88,3.09-6.88,6.89-6.88M783.34,198.7c-4.35,0-7.89,3.53-7.89,7.88s3.53,7.88,7.89,7.88,7.89-3.53,7.89-7.88-3.53-7.88-7.89-7.88h0Z"/>
        </g>
        <g>
          <circle class="cls-1" cx="685.57" cy="127.74" r="7.38"/>
          <path class="cls-2" d="M685.57,120.85c3.8,0,6.89,3.09,6.89,6.89s-3.09,6.88-6.89,6.88-6.89-3.09-6.89-6.88,3.09-6.89,6.89-6.89M685.57,119.85c-4.35,0-7.89,3.53-7.89,7.89s3.53,7.88,7.89,7.88,7.89-3.53,7.89-7.88-3.53-7.89-7.89-7.89h0Z"/>
        </g>
        <g>
          <polygon class="cls-7" points="44.88 502.56 44.88 462.56 465.64 462.56 620.84 473.15 620.84 502.56 44.88 502.56"/>
          <path class="cls-2" d="M465.61,463.06l154.73,10.56v28.44H45.38v-39h420.22M465.64,462.06H44.38v41h576.95v-30.38l-155.7-10.62h0Z"/>
        </g>
      </g>
      <line class="cls-4" x1="133.61" y1="462.17" x2="133.61" y2="502.55"/>
      <polyline class="cls-4" points="134.14 462.7 291.39 473.33 620.25 473.33"/>
      <line class="cls-4" x1="290.86" y1="473.33" x2="290.86" y2="502.55"/>
    </g>
  </g>
</svg>