<?xml version="1.0" encoding="UTF-8"?>
<svg id="Layer_2" xmlns="http://www.w3.org/2000/svg" xmlns:xlink="http://www.w3.org/1999/xlink" viewBox="0 0 300 279.67">
  <defs>
    <style>
      .cls-1 {
        fill: url(#Unnamed_Pattern);
      }

      .cls-2 {
        fill: #3e3e3e;
      }

      .cls-3 {
        fill: #fe5b48;
      }

      .cls-4 {
        stroke: #3e3e3e;
        stroke-miterlimit: 10;
      }

      .cls-4, .cls-5 {
        fill: none;
      }

      .cls-6 {
        fill: #f28b1d;
      }

      .cls-7 {
        fill: #f095c0;
      }

      .cls-8 {
        fill: #017953;
      }
    </style>
    <pattern id="Unnamed_Pattern" data-name="Unnamed Pattern" x="0" y="0" width="100" height="100" patternTransform="translate(3670 4470.33) scale(1.67)" patternUnits="userSpaceOnUse" viewBox="0 0 100 100">
      <g>
        <rect class="cls-5" width="100" height="100"/>
        <rect class="cls-7" width="100" height="100"/>
      </g>
    </pattern>
  </defs>
  <g id="Layer_1-2" data-name="Layer_1">
    <g>
      <polygon class="cls-5" points="300 267 0 267 65.22 72 234.78 72 300 267"/>
      <g>
        <rect class="cls-1" x="134.5" y="83.17" width="31" height="184.33"/>
        <path class="cls-2" d="M165,83.67v183.33h-30V83.67h30M166,82.67h-32v185.33h32V82.67h0Z"/>
      </g>
      <g>
        <path class="cls-3" d="M50.3,113.5l-.05-.44c-.5-4.13-.75-8.19-.75-12.06C49.5,45.58,94.58.5,150,.5s100.5,45.08,100.5,100.5c0,3.87-.25,7.93-.75,12.06l-.05.44H50.3Z"/>
        <path class="cls-2" d="M150,1c55.23,0,100,44.77,100,100,0,4.06-.27,8.06-.74,12H50.74c-.47-3.94-.74-7.94-.74-12C50,45.77,94.77,1,150,1M150,0C94.31,0,49,45.31,49,101c0,3.94.24,7.91.75,12.12l.11.88h200.29l.11-.88c.5-4.21.75-8.18.75-12.12C251,45.31,205.69,0,150,0h0Z"/>
      </g>
      <g>
        <rect class="cls-8" x="82.83" y="253.17" width="134.33" height="26"/>
        <path class="cls-2" d="M216.67,253.67v25H83.33v-25h133.33M217.67,252.67H82.33v27h135.33v-27h0Z"/>
      </g>
      <line class="cls-4" x1="94.17" y1="113.67" x2="94.17" y2="145.33"/>
      <g>
        <path class="cls-6" d="M94.17,164.17c-5.33,0-9.67-4.34-9.67-9.67s4.34-9.67,9.67-9.67,9.67,4.34,9.67,9.67-4.34,9.67-9.67,9.67Z"/>
        <path class="cls-2" d="M94.17,145.33c5.06,0,9.17,4.1,9.17,9.17s-4.1,9.17-9.17,9.17-9.17-4.1-9.17-9.17,4.1-9.17,9.17-9.17M94.17,144.33c-5.61,0-10.17,4.56-10.17,10.17s4.56,10.17,10.17,10.17,10.17-4.56,10.17-10.17-4.56-10.17-10.17-10.17h0Z"/>
      </g>
    </g>
  </g>
</svg>